PathFileType	4	(X/Y/Z)	../Python\walking\Walking12\task.trc
DataRate	CameraRate	NumFrames	NumMarkers	Units	OrigDataRate	OrigDataStartFrame	OrigNumFrames
200.000000	200.000000	5	30	mm	200.000000	0	426
Frame#	Time	CLAV			STRN			RASI			LASI			RTH1			RTH2			RTH3			RTB1			RTB2			RTB3			RD5M			RTOE			LTH1			LTH3			LTB1			LTB2			LTB3			LTOE			LD5M			LTH2			RHEE			T10			PE03			RPSI			PE02			LPSI			PE01			C7			RBAK			LHEE			
		X1	Y1	Z1	X2	Y2	Z2	X3	Y3	Z3	X4	Y4	Z4	X5	Y5	Z5	X6	Y6	Z6	X7	Y7	Z7	X8	Y8	Z8	X9	Y9	Z9	X10	Y10	Z10	X11	Y11	Z11	X12	Y12	Z12	X13	Y13	Z13	X14	Y14	Z14	X15	Y15	Z15	X16	Y16	Z16	X17	Y17	Z17	X18	Y18	Z18	X19	Y19	Z19	X20	Y20	Z20	X21	Y21	Z21	X22	Y22	Z22	X23	Y23	Z23	X24	Y24	Z24	X25	Y25	Z25	X26	Y26	Z26	X27	Y27	Z27	X28	Y28	Z28	X29	Y29	Z29	X30	Y30	Z30	

1	0	268.6597900390626	1403.385375976563	86.80330657958987	310.5795898437501	1208.536376953125	100.5169525146485	292.8120117187501	1011.357849121094	239.6667633056642	274.7877197265626	1005.850219726563	-36.35607528686525	320.0599975585939	751.0491943359377	295.3480224609376	277.8384399414064	709.0071411132815	276.9913330078126	314.3703613281251	675.1832275390627	271.5293579101564	481.927185058594	384.8809509277346	228.5494689941407	461.0509033203127	327.4115295410157	230.6932067871095	506.9303283691409	310.2244567871095	220.8298950195314	694.126159667969	70.01143646240237	211.5194854736329	728.0039062500002	111.5142440795899	175.5909118652344	122.917594909668	716.8956298828127	-49.03361129760745	125.6982955932618	639.600036621094	-32.10804367065431	-0.5928354859352114	370.9490051269532	8.101325988769535	-38.45761108398439	342.6384582519532	25.11670112609865	-1.196614146232605	292.7945251464845	19.96600341796876	72.00724792480472	29.01484489440919	80.07824707031253	17.33569908142091	19.49953651428223	38.40379333496095	86.33467864990237	687.2222290039065	-29.28907585144044	540.259704589844	25.41809463500978	139.2443237304688	87.03668975830081	1249.767700195313	89.73071289062503	109.6019515991212	1037.005004882813	104.7064361572266	126.5559310913087	1047.813842773438	177.1475982666016	118.8493728637696	1036.473876953125	155.2968750000001	111.4270172119141	1051.783813476563	79.25582122802737	126.1796875000001	1096.798217773438	128.0800323486329	163.2037811279297	1502.366943359375	71.43344879150393	131.3326110839844	1423.729858398438	243.3396453857423	-136.0200500488282	68.80473327636722	116.2518005371094	
2	0.005	275.516815185547	1402.483154296875	86.93361663818362	317.5846252441407	1207.607543945313	100.4819412231446	300.4334716796876	1010.388488769532	239.8474731445314	281.7248535156251	1004.85009765625	-36.4447708129883	326.334197998047	749.6369628906252	295.5691528320314	283.8964843750001	707.9321899414065	276.800018310547	320.1781005859376	673.885681152344	271.4486083984376	488.9923400878909	384.1002502441409	228.4119415283204	468.9046630859377	326.3750915527345	230.4560394287111	515.0030517578127	309.8052062988282	220.5066528320314	705.8143310546877	71.68299102783206	210.0532836914064	738.9527587890627	114.1808776855469	174.3121337890626	128.2651367187501	716.7525024414065	-48.94179916381839	130.6610107421876	639.4010009765627	-32.13969802856447	2.590740203857423	371.6728820800782	8.070649147033695	-35.46345138549806	343.6499023437501	25.12679290771486	1.383215188980103	293.4913330078126	19.90199851989747	72.01506805419925	29.00700569152833	80.06062316894534	17.3650074005127	19.57533073425294	38.48082733154298	91.65763092041018	687.2888183593752	-28.93688774108888	552.2544555664065	25.47949600219728	137.8990020751954	93.95842742919925	1248.740966796875	90.06009674072268	116.8685150146485	1036.007080078125	105.1474380493165	133.908187866211	1046.870483398438	177.5706939697266	126.1794204711915	1035.516967773438	155.7325897216797	118.5797882080079	1050.754516601563	79.69435119628909	133.4195098876954	1095.82861328125	128.4683990478516	169.9567871093751	1501.45068359375	71.70490264892581	138.3096771240235	1422.713256835938	243.6355895996095	-135.4947357177735	70.75717926025393	115.9641952514649	
3	0.01	282.4043579101564	1401.622314453125	87.08511352539065	324.6595458984376	1206.725341796875	100.4666900634766	308.1044921875001	1009.455810546875	240.0456085205079	288.7793579101564	1003.855407714844	-36.51006317138673	332.7998352050782	748.3847656250002	295.7991333007814	290.1844177246095	706.9834594726565	276.647186279297	326.2579650878907	672.759948730469	271.3816833496095	495.8712158203127	383.2477111816407	228.2823791503907	476.4241333007815	325.3208312988282	230.1558074951173	522.7136230468752	309.2693481445314	220.1815185546876	716.5559082031252	72.93888854980472	208.6533660888673	749.0523071289065	116.3782272338868	173.1629791259766	133.7232360839844	716.6418457031252	-48.86985015869143	135.7292938232422	639.2363891601565	-32.20102310180665	5.889534950256349	372.4252929687501	7.96705532073975	-32.36986923217775	344.7049255371095	25.0452117919922	4.056071281433107	294.2283020019532	19.75826835632325	72.02998352050784	29.00265693664552	80.02947235107425	17.41863250732423	19.63574409484864	38.52008056640626	97.08787536621099	687.3886718750002	-28.62207794189455	563.3168945312502	25.41968917846681	136.4510040283204	100.9460372924805	1247.720458984375	90.39994049072268	124.2202072143555	1035.042602539063	105.5767364501954	141.3256835937501	1045.9697265625	177.9861450195313	133.5784759521485	1034.599487304688	156.1577453613282	125.8251724243165	1049.75341796875	80.11892700195315	140.7407836914063	1094.894653320313	128.8412780761719	176.7260894775391	1500.562744140625	71.99757385253909	145.3114471435547	1421.70947265625	243.9528656005861	-134.9337768554688	72.81540679931643	115.5383682250977	
4	0.015	289.3223571777345	1400.806640625	87.2585144042969	331.8050842285157	1205.894287109375	100.4729919433594	315.8243408203126	1008.566650390625	240.2614135742189	295.954315185547	1002.867797851563	-36.54977416992189	339.468475341797	747.301452636719	296.0347290039064	296.7166748046876	706.1653442382815	276.5348510742189	332.6302185058595	671.8125610351565	271.3292236328126	502.5716552734377	382.3177185058595	228.1580657958986	483.6109924316409	324.2398376464845	229.7883453369142	530.065124511719	308.603973388672	219.8530883789064	726.3401489257815	73.7339782714844	207.3326263427736	758.3035888671877	118.0431823730469	172.1511993408204	139.3005676269532	716.5584716796877	-48.81883239746097	140.9146118164063	639.1011962890627	-32.29154586791994	9.316942214965824	373.2017211914064	7.79029750823975	-29.16589736938478	345.8002929687501	24.86812400817873	6.832237243652347	295.0023803710939	19.53640937805176	72.05482482910159	29.00235557556154	79.985221862793	17.4968662261963	19.68059730529786	38.52205657958986	102.6333007812501	687.5155029296877	-28.3483009338379	573.4199829101565	25.21547889709474	134.9288177490235	108.0004501342774	1246.709594726563	90.74822235107425	131.6571655273438	1034.115234375	105.9919052124024	148.8077239990235	1045.11572265625	178.3915557861329	141.0459747314454	1033.725341796875	156.5699462890626	133.1643981933594	1048.784301757813	80.52704620361331	148.1430816650391	1094.000244140625	129.1959228515626	183.5117950439454	1499.706176757813	72.310905456543	152.3365631103516	1420.7216796875	244.2903594970704	-134.332015991211	74.98213195800784	114.9726867675782	
5	0.02	296.2706604003907	1400.039794921875	87.4544372558594	339.0213317871095	1205.118896484375	100.5024795532227	323.592254638672	1007.727905273438	240.495086669922	303.2520446777345	1001.888793945313	-36.56178665161134	346.3477783203126	746.3931884765627	296.271697998047	303.5021057128907	705.4802246093752	276.4648742675782	339.3077392578126	671.046569824219	271.291473388672	509.1034851074221	381.3080444335939	228.035858154297	490.4727172851565	323.1263122558595	229.3523406982423	537.0660400390627	307.8012695312501	219.5198211669923	735.1676025390627	74.03199005126956	206.1026763916017	766.719421386719	119.1200942993165	171.2824096679688	145.0062255859376	716.496276855469	-48.78917312622073	146.2292785644532	638.9890747070315	-32.40931320190431	12.88648033142091	373.9976501464845	7.5413031578064	-25.84015274047853	346.9326477050782	24.59301376342775	9.722320556640629	295.8103637695314	19.23921585083009	72.09239196777347	29.00657463073732	79.92847442626956	17.59961700439454	19.70977401733399	38.48786544799806	108.3029098510743	687.6616210937502	-28.11777496337892	582.5483398437502	24.85374832153322	133.3640441894532	115.122169494629	1245.712036132813	91.10284423828128	139.1790008544922	1033.228881835938	106.3904037475587	156.3531799316407	1044.312622070313	178.7843780517579	148.5809631347657	1032.898803710938	156.9666442871094	140.5981140136719	1047.850341796875	80.91607666015628	155.6254119873047	1093.1494140625	129.5294189453126	190.3139343261719	1498.884521484375	72.64427185058597	159.3836517333985	1419.753295898438	244.6468811035157	-133.6834411621094	77.25987243652347	114.2676315307618	
